<?xml version="1.0" encoding="UTF-8" standalone="no"?><!DOCTYPE svg PUBLIC "-//W3C//DTD SVG 1.1//EN" "http://www.w3.org/Graphics/SVG/1.1/DTD/svg11.dtd"><svg width="100%" height="100%" viewBox="0 0 2000 2000" version="1.1" xmlns="http://www.w3.org/2000/svg" xmlns:xlink="http://www.w3.org/1999/xlink" xml:space="preserve" xmlns:serif="http://www.serif.com/" style="fill-rule:evenodd;clip-rule:evenodd;stroke-linecap:round;stroke-linejoin:round;stroke-miterlimit:1.5;"><g id="Logo"><path id="J" d="M581.325,544.479l305.587,-182.112l-295.6,-177.025c-59.792,-26.679 -117.304,-39.45 -171.767,-33.575c-91.092,6.808 -169.892,35.242 -231.687,93.6c-77.833,80.392 -117.238,171.583 -117.842,273.679c0.508,137.558 65.721,234.137 164.779,309.288l706.05,413.062l2.996,-362.192l-541.271,-320.479c-59.413,-50.371 16.471,-129.029 54.925,-85.462l123.833,71.217l-0.004,0Z" style="stroke:#000;stroke-width:20.83px;"/><path id="J3" d="M945.763,1354.454l-304.654,-183.733l-8.375,349.221c6.138,66.204 23.104,123.629 54.592,169.279c50.071,77.821 112.733,134.196 192.817,160.896c106.775,30.288 204.163,21.1 292.063,-27.937c117.792,-67.246 169.004,-172.221 185.392,-296.929l11.625,-829.375l-312.254,173.196l-12.188,637.671c-14.379,77.371 -118.717,47.983 -100.004,-7.421l0.983,-144.867l0.004,-0Z" style="stroke:#000;stroke-width:20.83px;"/><path id="J2" d="M1472.608,621.133l6.5,360.612l296.121,-176.125c52.083,-40.088 91.138,-84.954 112.742,-136.225c38.712,-84.279 52.9,-168.208 33.15,-251.658c-30.771,-108.479 -89.588,-188.083 -176.704,-238.546c-118.029,-66.812 -232.613,-56.087 -345.396,-4.808l-698.925,425.45l308.65,179.771l539.079,-324.292c72.183,-28.167 102.421,77.729 46.317,90.6l-121.533,75.221Z" style="stroke:#000;stroke-width:20.83px;"/><path id="J-Interioro" serif:id="J Interioro" d="M743.504,1351.062l104.858,59.008l-1.996,103.775c12.996,90.525 69.717,129.912 154.617,136.329c74.067,4.675 124.508,-40.283 155.967,-125.138l-1,-596.192l103.858,-63.079l1,657.233c-29.55,139.562 -104.933,213.471 -219.704,230.946c-138.283,5.971 -242.212,-40.55 -284.617,-181.096c-18.487,-16.221 -16.012,-117.879 -12.983,-221.792l0,0.004Z" style="stroke:#000;stroke-width:7.5px;"/><path id="J-Interioro1" serif:id="J Interioro" d="M692.108,341.175l-103.358,61.696l-86.55,-54.758c-83.029,-34.858 -145.238,-5.3 -194.025,65.779c-41.779,62.479 -29.604,129.625 25.933,200.521l503.617,303.663l0.179,123.183l-555.129,-334.842c-102.679,-97.171 -126.542,-200.946 -82.663,-310.392c65.596,-124.158 157.942,-191.425 298.204,-156.771c23.133,-7.908 107.65,46.188 193.792,101.921Z" style="stroke:#000;stroke-width:7.5px;"/><path id="J-Interioro2" serif:id="J Interioro" d="M1572.567,801.333l-1.238,-122.033l89.633,-49.342c70.933,-56.108 76.642,-125.796 40.308,-204.233c-32.483,-67.971 -95.737,-90.55 -183.721,-76.646l-508.817,294.529l-105.042,-61.017l560.962,-324.596c133.779,-42.538 234.046,-12.104 305.504,81.046c73.208,119.663 84.658,234.725 -14.521,341.542c-4.75,24.383 -92.812,72.254 -183.075,120.75l0.004,0Z" style="stroke:#000;stroke-width:7.5px;"/></g></svg>