<?xml version="1.0" encoding="UTF-8" standalone="no"?><!DOCTYPE svg PUBLIC "-//W3C//DTD SVG 1.1//EN" "http://www.w3.org/Graphics/SVG/1.1/DTD/svg11.dtd"><svg width="100%" height="100%" viewBox="0 0 2000 2000" version="1.1" xmlns="http://www.w3.org/2000/svg" xmlns:xlink="http://www.w3.org/1999/xlink" xml:space="preserve" xmlns:serif="http://www.serif.com/" style="fill-rule:evenodd;clip-rule:evenodd;stroke-linecap:round;stroke-linejoin:round;stroke-miterlimit:1.5;"><g id="Logo"><rect x="0" y="0" width="2000" height="2000"/><path id="J" d="M581.325,544.481l305.588,-182.113l-295.602,-177.026c-59.79,-26.68 -117.305,-39.45 -171.769,-33.574c-91.091,6.809 -169.892,35.243 -231.688,93.6c-77.835,80.391 -117.236,171.583 -117.841,273.678c0.51,137.557 65.723,234.138 164.778,309.287l706.049,413.061l2.996,-362.191l-541.271,-320.478c-59.412,-50.373 16.47,-129.027 54.926,-85.461l123.833,71.217Z" style="fill:#fff;stroke:#000;stroke-width:20.83px;"/><path id="J3" d="M945.764,1354.454l-304.653,-183.733l-8.376,349.221c6.137,66.204 23.105,123.628 54.593,169.28c50.072,77.82 112.734,134.194 192.816,160.895c106.777,30.286 204.161,21.098 292.064,-27.936c117.791,-67.245 169.003,-172.22 185.392,-296.929l11.624,-829.377l-312.253,173.196l-12.187,637.67c-14.377,77.371 -118.716,47.982 -100.004,-7.422l0.984,-144.867Z" style="fill:#fff;stroke:#000;stroke-width:20.83px;"/><path id="J2" d="M1472.608,621.133l6.499,360.614l296.121,-176.123c52.081,-40.086 91.139,-84.952 112.741,-136.225c38.713,-84.277 52.9,-168.208 33.151,-251.66c-30.772,-108.479 -89.586,-188.085 -176.706,-238.547c-118.028,-66.811 -232.612,-56.087 -345.394,-4.809l-698.926,425.449l308.652,179.772l539.079,-324.29c72.182,-28.165 102.423,77.73 46.315,90.6l-121.532,75.22Z" style="fill:#fff;stroke:#000;stroke-width:20.83px;"/></g></svg>